<?xml version="1.0" standalone="no"?><!DOCTYPE svg PUBLIC "-//W3C//DTD SVG 1.1//EN" "http://www.w3.org/Graphics/SVG/1.1/DTD/svg11.dtd"><svg t="1608703886573" class="icon" viewBox="0 0 1024 1024" version="1.1" xmlns="http://www.w3.org/2000/svg" p-id="3738" xmlns:xlink="http://www.w3.org/1999/xlink" width="48" height="48"><defs><style type="text/css"></style></defs><path d="M783.640548 296.041205L856.814466 171.835616c37.947616 17.934027 69.467178 48.625973 92.251178 88.092055 22.784 39.459068 33.60263 82.098849 30.158904 123.932055l-144.145534 1.262466-51.431452-89.080987z" fill="#C40000" p-id="3739"></path><path d="M798.621808 321.988384l27.469151 28.496657 147.119342-26.119014a168.598795 168.598795 0 0 0-4.394082-21.044602c8.942466 26.476712 12.617644 53.672329 10.404822 80.538301l-144.145534 1.262466-36.453699-63.133808z" fill="#9E0000" p-id="3740"></path><path d="M850.768658 168.276164a7.013699 7.013699 0 0 1 9.03715-2.780931c38.231671 18.067288 70.557808 48.801315 94.232548 89.042411a7.013699 7.013699 0 0 1-12.088109 7.11189c-21.086685-35.84-49.292274-63.512548-82.407452-80.636493l-67.780384 115.063233 47.342466 81.997151 133.537315-1.167781 0.101698-2.591562c0.718904-22.454356-2.756384-45.294466-10.275068-67.868055a7.013699 7.013699 0 0 1 13.308493-4.432657c9.107288 27.349918 12.67726 55.17326 10.436384 82.421479a7.013699 7.013699 0 0 1-6.929535 6.438576l-144.149041 1.262465a7.013699 7.013699 0 0 1-6.136986-3.506849l-51.431452-89.080986a7.013699 7.013699 0 0 1 0.035068-7.066302z m108.887671 105.317699a7.013699 7.013699 0 1 1 0 14.027397 7.013699 7.013699 0 0 1 0-14.027397z" fill="#4C3030" p-id="3741"></path><path d="M191.424877 637.959014l-144.149041 1.262465c-3.443726 41.833205 7.378411 84.472986 30.158904 123.935562 22.784 39.462575 54.303562 70.154521 92.251178 88.088548l73.170411-124.205589-51.431452-89.080986z" fill="#C40000" p-id="3742"></path><path d="M206.40263 663.906192l10.944877 38.035287-96.178849 114.351343a168.598795 168.598795 0 0 1-16.026302-14.328986c18.453041 20.984986 40.174466 37.76526 64.543562 49.281753l73.170411-124.205589-36.453699-63.133808z" fill="#9E0000" p-id="3743"></path><path d="M47.212712 632.207781a7.013699 7.013699 0 0 0-6.926027 6.438575c-3.524384 42.804603 7.315288 86.864658 31.074192 128.017534 23.762411 41.156384 56.495342 72.57074 95.330191 90.922083a7.013699 7.013699 0 0 0 9.040658-2.780932l73.166904-124.205589a7.013699 7.013699 0 0 0 0.031562-7.066301l-51.431452-89.080987a7.013699 7.013699 0 0 0-6.136987-3.506849l-144.149041 1.262466z m140.182795 12.8l47.342466 81.997151-67.787398 115.063232c-33.662247-17.408-62.250082-45.718795-83.441972-82.417972-20.753534-35.952219-30.986521-74.026082-29.745096-111.153096l0.091178-2.318028 133.540822-1.171287z" fill="#4C3030" p-id="3744"></path><path d="M553.962959 277.847671v417.083617l-80.657534 46.567452V324.415123l80.657534-46.570959z m161.322082-25.820931l-0.003507 349.766137-80.661041 46.570959 0.003507-402.638904a180.921863 180.921863 0 0 1 80.657534 6.301808z m102.470137 82.060274c40.034192 69.340932 28.86137 154.196164-21.788055 210.772164V303.93863a181.374247 181.374247 0 0 1 21.788055 30.151891z m-425.107288 36.892054V773.260274a180.953425 180.953425 0 0 1-80.654027-6.684055v-349.022685l80.654027-46.570959z m-161.315068 103.932494v239.096986a181.451397 181.451397 0 0 1-20.98148-29.236603c-39.820274-68.969205-28.977096-153.28789 20.98148-209.860383z" fill="#C40000" p-id="3745"></path><path d="M473.266849 324.436164v417.083617l-16.243726 9.377315a180.111781 180.111781 0 0 1-64.406794 22.380712l-0.003507-402.274192 80.657534-46.570958z m97.746411-56.432219a180.132822 180.132822 0 0 1 63.575672-22.257972l-0.007014 402.638904-80.657534 46.567452V277.868712l17.088876-9.864767z m224.89074 35.924165v240.980164a180.444932 180.444932 0 0 1-44.291507 35.910137l-36.373041 20.999014 0.003507-349.773151a180.111781 180.111781 0 0 1 80.657534 51.883836zM311.951781 417.571068v349.019179a180.080219 180.080219 0 0 1-80.657534-52.560658v-239.096986a180.402849 180.402849 0 0 1 45.126137-36.846466l35.531397-20.515069z" fill="#FFFFFF" p-id="3746"></path><path d="M553.924384 613.961644v80.990685l-80.657535 46.567452v-80.990685l80.657535-46.567452z m161.315068-93.134904v80.990685l-80.657534 46.567452v-80.990685l80.657534-46.567452z m36.411616 59.967123l-0.035068 0.021041a183.313534 183.313534 0 0 0 0.035068-0.021041z m2.574028-1.511452l-0.094685 0.052603 1.476384-0.89074-1.472877 0.89074 0.091178-0.052603z m-302.735781 174.686685l0.561096-0.305096c-0.185863 0.105205-0.375233 0.203397-0.561096 0.305096z m305.27474-176.236712l-0.287562 0.175342c0.473425-0.291068 0.946849-0.589151 1.420274-0.887233l-1.420274 0.89074 0.287562-0.178849z m2.507397-1.588603l-0.220931 0.140274c0.385753-0.245479 0.771507-0.497973 1.15726-0.750466l-1.15726 0.750466 0.220931-0.140274z m2.472329-1.620165l-0.448877 0.298083 1.788493-1.20285-1.788493 1.20285 0.448877-0.298083z m-315.483178 182.121206l0.58915-0.294575-0.58915 0.291068z m317.920438-183.772932l-0.662794 0.448877c0.652274-0.44537 1.301041-0.897753 1.946301-1.350137l-1.942795 1.353644 0.659288-0.45589z m-320.368219 184.951233l0.438356-0.210411-0.438356 0.210411z m322.770411-186.641534l-0.785534 0.554082c0.575123-0.406795 1.150247-0.817096 1.718356-1.230904l-1.71485 1.230904 0.782028-0.554082z m2.367123-1.718356l-0.715397 0.519014 1.60263-1.192329-1.60263 1.192329 0.715397-0.522521z m28.324822-264.044712a181.472438 181.472438 0 0 1 20.48 28.668493c46.094027 79.836932 24.302466 180.238027-47.458192 234.366246a179.936438 179.936438 0 0 0 25.607014-23.544986l0.003507-119.246904c13.876603-38.014247 14.963726-80.457644 1.367671-120.242849z m-404.655342 398.360547l-0.003507 69.481206a180.953425 180.953425 0 0 1-80.661041-6.701589v-53.293589a179.697973 179.697973 0 0 0 80.661041-9.486028z m-196.85348-51.07726a179.291178 179.291178 0 0 0 35.524384 31.203945v30.053699a181.454904 181.454904 0 0 1-20.935891-29.187507 181.496986 181.496986 0 0 1-14.588493-32.070137z" fill="#9E0000" p-id="3747"></path><path d="M634.581918 567.394192v80.990685l-80.657534 46.567452v-80.987178l80.657534-46.570959z m161.325589-141.736329v119.250411a179.32274 179.32274 0 0 1-17.316822 16.888986l0.007014 0.003507c-2.072548 1.753425-4.187178 3.471781-6.347398 5.148055l0.059617-0.035069c-0.708384 0.550575-1.423781 1.097644-2.146192 1.641206l2.090082-1.606137c-0.725918 0.564603-1.458849 1.122192-2.195287 1.679781h0.003506c-1.574575 1.178301-3.166685 2.339068-4.783342 3.471781l0.592657-0.413809c-0.771507 0.547068-1.550027 1.087123-2.332054 1.623672l1.739397-1.209863c-0.725918 0.512-1.455342 1.016986-2.191781 1.514958l0.455891-0.305095c-0.764493 0.526027-1.536 1.041534-2.307507 1.553534l1.851616-1.248439c-0.848658 0.57863-1.707836 1.150247-2.57052 1.718357l0.718904-0.469918c-0.725918 0.480438-1.455342 0.95737-2.191781 1.427287l1.472877-0.957369c-1.087123 0.71189-2.18126 1.41326-3.285918 2.104109l1.813041-1.14674c-0.782027 0.501479-1.571068 0.999452-2.363617 1.493918l0.550576-0.343671c-0.789041 0.490959-1.578082 0.981918-2.377644 1.462356l1.823562-1.122192c-0.841644 0.526027-1.690301 1.045041-2.542466 1.553535l0.718904-0.431343c-0.932822 0.561096-1.872658 1.122192-2.819507 1.669261l-0.420822 0.245479-36.373041 20.999014v-80.990685l1.343123-0.771507a179.873315 179.873315 0 0 0 79.324932-94.39737z m-376.200767 265.777096l2.286465-1.297534 51.270137-29.604822 0.007014 80.987178-16.208657 9.356274a183.899178 183.899178 0 0 1-5.253261 2.921205l0.052603-0.028055c-0.799562 0.427836-1.599123 0.848658-2.398685 1.262466l2.349589-1.234411a182.987397 182.987397 0 0 1-2.910685 1.518466l0.561096-0.284055c-0.922301 0.476932-1.84811 0.943342-2.770411 1.40274l2.209315-1.118685c-0.796055 0.406795-1.59211 0.806575-2.391671 1.202849l0.178849-0.084164c-0.894247 0.441863-1.792 0.876712-2.69326 1.304548l2.514411-1.220384c-0.869699 0.431342-1.742904 0.852164-2.61611 1.262466v0.007014a179.708493 179.708493 0 0 1-51.27715 15.472219v-69.481206a181.479452 181.479452 0 0 0 27.090411-12.344109z m-107.754959 21.830137v53.293589a180.076712 180.076712 0 0 1-80.661041-52.595726l0.003507-30.053699a181.377753 181.377753 0 0 0 80.657534 29.352329z" fill="#F9E5E5" p-id="3748"></path><path d="M567.541479 261.909041c89.736767-51.810192 204.480877-21.065644 256.287562 68.671123 51.810192 89.736767 21.065644 204.480877-68.671123 256.287562l-294.58937 170.082192c-89.740274 51.810192-204.484384 21.065644-256.291069-68.671123-51.806685-89.736767-21.062137-204.480877 68.674631-256.287562a7.013699 7.013699 0 0 1 7.013698 12.147726c-83.028164 47.935123-111.475726 154.101479-63.540603 237.126137 47.93863 83.028164 154.101479 111.472219 237.129644 63.537096l294.58937-170.082192c83.028164-47.935123 111.472219-154.097973 63.537096-237.126137-47.935123-83.024658-154.097973-111.472219-237.126137-63.537096l-220.787726 127.473973a7.013699 7.013699 0 1 1-7.013699-12.151233z m-267.169315 155.465644a7.013699 7.013699 0 1 1 0 14.027397 7.013699 7.013699 0 0 1 0-14.027397z" fill="#4C3030" p-id="3749"></path></svg>