<?xml version="1.0" standalone="no"?><!DOCTYPE svg PUBLIC "-//W3C//DTD SVG 1.1//EN" "http://www.w3.org/Graphics/SVG/1.1/DTD/svg11.dtd"><svg t="1608699056776" class="icon" viewBox="0 0 1024 1024" version="1.1" xmlns="http://www.w3.org/2000/svg" p-id="2781" xmlns:xlink="http://www.w3.org/1999/xlink" width="48" height="48"><defs><style type="text/css"></style></defs><path d="M311.739733 902.638933l-16.257706 60.689067c-7.912107 29.528747-34.597547 49.015467-63.77472 49.056427l24.890026-92.883627 55.145814-16.861867z m52.770134-196.932266l-25.552214 95.361706-55.145813 16.861867 25.552213-95.361707 55.145814-16.861866z m52.770133-196.932267l-25.555627 95.361707-55.145813 16.861866 25.552213-95.361706 55.145814-16.861867z m52.76672-196.932267l-25.552213 95.361707-55.145814 16.861867 25.552214-95.36512 55.145813-16.861867z m301.779627 51.882667l-27.333974 102.017707c-24.92416-14.4384-38.270293-44.076373-30.993066-73.243307l0.290133-1.1264 2.88768-10.786133 55.149227-16.861867z m-36.908374-51.28192l0.221867-0.877227c-0.256 1.037653-0.52224 2.07872-0.79872 3.116374l0.580267-2.239147z m-247.278933-66.187947l-0.597333 2.164054 0.49152-1.798827 0.1024-0.365227z m0.365227-1.276586l-0.365227 1.276586 0.116053-0.413013 0.146774-0.505173 0.1024-0.3584z m247.13216 66.604373l-0.126294 0.512-0.09216 0.34816 0.218454-0.86016z m-230.833494-103.46496l-0.197973 0.320853v0.003414l-0.034133 0.0512-0.08192 0.136533 0.314026-0.512-62.18752 19.012267 0.08192-0.293547c12.182187-45.4656 41.007787-82.029227 78.168747-104.88832l15.31904 50.09408-1.42336 1.1776a144.008533 144.008533 0 0 0-28.941653 33.266347l-1.153707 1.856853 0.136533-0.22528z m-14.144853 30.071467l-0.262827 0.774826 0.2048-0.607573 0.058027-0.167253z m247.569067 60.5696l-0.01024 0.08192 0.197973-1.297067c-0.058027 0.402773-0.12288 0.80896-0.187733 1.215147z m0.761173-5.440854l-0.0512 0.436907 0.044373-0.375467 0.006827-0.06144z m51.391147-28.35456l-50.377387 15.40096-0.003413 0.180907c0.713387-19.797333-2.52928-38.925653-9.096534-56.33024l0.375467 1.00352 0.365227 1.010347 31.37536-48.305494a176.991573 176.991573 0 0 1 27.36128 87.04z m-287.634774-53.384533l-0.631466 1.102507 0.631466-1.102507z m38.15424-43.236693l-0.62464 0.474453 0.361814-0.273067 0.262826-0.2048z m187.921067 50.674346l0.08192 0.19456 0.068267 0.167254-0.150187-0.361814z m-0.907947-2.092373l0.098987 0.221867 0.238933 0.546133-0.33792-0.768z m-185.1904-49.923413l-0.3072 0.218453 0.3072-0.218453z m182.657707 44.53376l0.324267 0.648533 0.720213 1.501867-1.04448-2.1504z m-1.1776-2.310827l0.761173 1.47456 0.232107 0.467627-0.99328-1.9456z m-174.475947-46.967467l-0.59392 0.372054 0.068267-0.044374 0.525653-0.331093z m172.987734 44.178774l0.09216 0.17408-0.09216-0.170667z m-169.632427-46.24384l-0.50176 0.300373 0.252587-0.150187 0.249173-0.150186z m168.096427 43.533653l0.310613 0.539307 0.4096 0.713386-0.720213-1.252693z m-164.601174-45.53728l-1.10592 0.617813 1.10592-0.617813z m163.167574 43.13088l0.19456 0.314027 0.549546 0.928426-0.744106-1.242453z m-161.3824-44.10368l-1.174187 0.631467 0.566613-0.3072 0.607574-0.324267z m161.027413 43.53024l0.238933 0.375467 0.116054 0.197973-0.354987-0.57344z m-0.86016-1.378987l0.354987 0.559787 0.505173 0.8192-0.86016-1.378987z m-158.733653-42.9056l-0.88064 0.4608 0.651946-0.341333 0.228694-0.119467z m158.184106 42.052267l0.26624 0.406187 0.283307 0.447146-0.546133-0.853333z m-157.754026-42.274133l-0.43008 0.221866 0.43008-0.221866z m156.672 40.618666l0.91136 1.3824 0.170666 0.26624-1.078613-1.645226z m-0.474454-0.7168l0.01024 0.017067-0.01024-0.013653z m-1.85344-2.669226l-0.078506-0.11264 0.846506 1.201493-0.768-1.088853z m-1.662293-2.28352l0.16384 0.221866 1.109333 1.518934-1.273173-1.7408z m-0.62464-0.82944l0.436907 0.580266 0.187733 0.249174-0.62464-0.82944z m-1.024-1.334614l0.682667 0.887467 0.341333 0.443733-1.024-1.3312z m-140.41088-37.66272l-0.512 0.211627 0.453973-0.18432 0.058027-0.027307z m0.39936-0.157013l-0.3072 0.119467 0.3072-0.119467z m1.897813-0.750933l-1.071786 0.41984 0.535893-0.208214 0.535893-0.211626z m135.232854 35.00032l-0.105814-0.126294 0.67584 0.812374-0.570026-0.68608z m-131.69664-36.293974l-0.45056 0.157014 0.45056-0.157014z m129.194666 33.396054l0.232107 0.259413 0.3072 0.34816-0.539307-0.607573z m-126.12608-34.42688l-0.443733 0.14336 0.058027-0.02048 0.385706-0.12288z m125.381974 33.59744l-0.273067-0.300374 0.273067 0.300374-0.549547-0.60416zM580.608 147.694933l-0.580267 0.18432 0.53248-0.16384 0.047787-0.02048z m1.713493-0.512l-1.317546 0.392534 1.317546-0.392534 0.18432-0.054613z m120.241494 32.314027l0.24576 0.256 0.580266 0.617813-0.826026-0.873813z m-0.341334-0.3584l0.013654 0.013653 0.32768 0.344747-0.341334-0.3584-1.153706-1.191253z m-117.097813-32.744107l-0.617813 0.167254 0.1024-0.027307 0.512-0.139947z m0.682667-0.180906l-0.682667 0.180906 0.682667-0.180906 0.443733-0.116054z m113.660586 30.13632a114.13504 114.13504 0 0 0-0.034133-0.034134z m-1.099093-1.06496l-0.31744-0.303787c0.341333 0.324267 0.682667 0.648533 1.017173 0.979627l-0.699733-0.67584z m-108.352853-30.102187l-0.69632 0.160427 0.201386-0.047787 0.494934-0.11264z m107.287893 29.095253l-0.59392-0.549546 0.59392 0.549546z m-1.426773-1.31072l0.262826 0.238934-0.262826-0.238934z m-103.970134-28.194133l-1.041066 0.218453 1.041066-0.218453z m104.23296 28.433067l-0.52224-0.477867 0.259414 0.238933-0.785067-0.70656z m-1.334613-1.201494l-0.580267-0.508586 0.535894 0.467626-1.11616-0.9728z m-101.102933-27.5968l-1.027414 0.2048 0.641707-0.126293 0.385707-0.078507z m0.252586-0.047786l-0.252586 0.047786 0.252586-0.047786z m3.795627-0.6656l-1.399467 0.232106-1.76128 0.314027 1.727147-0.3072 1.4336-0.238933z m95.542613 26.999466l-0.600746-0.512 0.600746 0.512-1.204906-1.020586z m-1.498453-1.262933l-0.477867-0.395947 0.477867 0.395947-0.96256-0.791893z m-3.97312-3.150507l0.925013 0.70656a121.25184 121.25184 0 0 1-1.467733-1.119573l0.546133 0.4096z m-87.678293-22.941013l-0.679254 0.095573 0.2048-0.03072 0.474454-0.068266z m1.877333-0.24576l-0.95232 0.116053 0.453973-0.054613 0.494934-0.06144z m83.739307 21.64736l0.19456 0.14336 0.232106 0.170667-0.426666-0.314027z m-0.505174-0.365227l-0.6656-0.474453 0.546134 0.38912-1.215147-0.86016z m-79.435093-21.68832l-0.303787 0.023894 0.300374-0.023894z m77.981013 20.660907l-0.679253-0.47104 0.679253 0.47104-1.365333-0.938667z m-76.038826-20.821333l-0.914774 0.068266 0.914774-0.068266z m3.49184-0.208214l-0.580267 0.027307 0.283307-0.013653 0.29696-0.013654z m64.877226 16.110934l0.976214 0.580266c0.53248 0.31744 1.06496 0.641707 1.590613 0.9728l-1.66912-1.024-0.897707-0.529066z m-59.938133-16.2304h0.167253a118.377813 118.377813 0 0 0-0.167253 0h0.167253z m59.265707 15.834453l0.037546 0.023893 0.095574 0.054614-0.13312-0.078507z m-0.116054-0.068267l0.116054 0.068267-1.5872-0.904533z m-56.9856-15.755946l-1.283413-0.01024 1.184427 0.01024h0.098986z m54.664534 14.44864l-0.539307-0.293547 0.539307 0.293547-1.078614-0.58368z m-14.148267-54.920534a177.46944 177.46944 0 0 1 37.280427 14.6432l-25.381547 39.07584 0.713387 0.375467a117.152427 117.152427 0 0 0-24.5248-9.63584 117.152427 117.152427 0 0 0-25.361067-3.8912l-2.184533-0.075093h-0.116054 0.054614-0.058027l0.474453 0.006826 0.054614 0.006827-14.19264-46.421333a176.8448 176.8448 0 0 1 53.241173 5.915306z m-39.103147 40.4992l-0.416426-0.006826h0.06144l0.354986 0.006826z" fill="#9E0000" p-id="2782"></path><path d="M256.597333 919.497387l-24.886613 92.88704a66.249387 66.249387 0 0 1-17.261227-2.269867c-29.177173-7.816533-48.54784-33.962667-49.0496-62.73024l91.19744-27.886933z m-91.204266 26.159786l0.003413 1.39264-0.003413-0.6144v-0.77824z m0.26624-5.31456l-0.09216 1.1264 0.0512-0.67584 0.04096-0.45056z m0.252586-2.351786l-0.180906 1.5872 0.146773-1.303894 0.034133-0.283306z m0.136534-1.020587l-0.09216 0.682667 0.095573-0.682667 0.109227-0.75776z m0.484693-2.932053l-0.314027 1.805653 0.293547-1.6896 0.02048-0.116053z m0.31744-1.57696l-0.228693 1.1264 0.1024-0.505174 0.126293-0.621226z m0.12288-0.55296l-0.12288 0.55296 0.07168-0.33792 0.0512-0.21504z m0.689493-2.82624l-0.689493 2.82624 0.259413-1.13664c0.136533-0.5632 0.279893-1.1264 0.43008-1.6896z m141.70112-206.513494l-25.5488 95.35488-94.078293 28.767574 25.552213-95.358294 94.07488-28.76416z m52.770134-196.93568l-25.552214 95.361707-94.078293 28.76416 25.552213-95.361707 94.078294-28.76416z m52.76672-196.932266l-25.552214 95.361706-94.07488 28.76416 25.552214-95.358293 94.071466-28.767573z m301.776213 51.882666l148.824747-45.48608a288.597333 288.597333 0 0 1-2.440534 10.376534l-0.904533 3.457706-20.548267 76.690774c-9.454933 35.293867-45.738667 56.241493-81.032533 46.783146a66.249387 66.249387 0 0 1-16.083627-6.662826l27.333974-102.014294 93.67552-28.63104z m-221.211307-340.077226l24.90368 81.442133c-37.16096 22.859093-65.989973 59.419307-78.17216 104.88832l-0.08192 0.293547-94.07488 28.76416 11.18208-41.724587c20.79744-77.612373 71.81312-139.137707 136.2432-173.663573z m374.784 265.284266l0.047787-0.433493 0.044373-0.433493z m1.102507-12.84096l0.0512-0.83968z m-60.04736-190.1568l0.08192 0.1024c31.52896 38.693547 51.954347 86.483627 58.361173 137.652907l-79.872 24.415573a176.991573 176.991573 0 0 0-27.357866-87.04l48.786773-75.127466z m59.067733 143.168854l0.017067 0.180906v-0.003413l-0.017067-0.177493z m-189.166933-227.584a250.361173 250.361173 0 0 1 61.835947 25.797973l-46.88896 72.205653a177.46944 177.46944 0 0 0-37.280427-14.6432 176.8448 176.8448 0 0 0-53.241173-5.91872l-25.494187-83.387733a249.74336 249.74336 0 0 1 101.0688 5.946027z m-184.685227 21.56544l-0.535893 0.28672 0.535893-0.28672z m3.966294-2.05824l-0.682667 0.344746 0.682667-0.344746z m15.14496-7.113387l-1.024 0.443733 1.024-0.443733z m3.549866-1.498453l-0.300373 0.12288 0.300373-0.12288z m289.80224 70.71744l-0.324266-0.385707 0.324266 0.385707-0.648533-0.768z m-2.484906-2.921814l0.27648 0.32768-0.27648-0.32768z m0.27648 0.32768l-0.512-0.59392 0.23552 0.26624-0.750934-0.86016z m-3.26656-3.720533l0.4608 0.515413z m-2.843307-3.1232l0.467627 0.508587-0.467627-0.512z m-2.65216-2.819413l0.197973 0.2048-0.197973-0.2048zM549.6832 18.807467l-0.55296 0.1536 0.314027-0.085334 0.238933-0.068266z m245.613227 66.116266l-0.935254-0.948906 0.709974 0.720213 0.22528 0.228693-0.935254-0.948906z m-245.32992-66.19136l-0.283307 0.075094 0.279893-0.075094z m242.571946 63.429974l-0.3584-0.351574 0.3584 0.351574-0.7168-0.703147z m-3.396266-3.28704l0.498346 0.474453-0.539306-0.512 0.04096 0.034133z m-3.013974-2.819414l0.474454 0.436907-0.477867-0.436907z m-224.300373-60.258986l-0.95232 0.211626 0.43008-0.095573 0.518827-0.116053z m7.796053-1.604267l-0.484693 0.088747z m4.02432-0.730453l-0.19456 0.034133 0.191147-0.034133z m200.669867 52.38784l-0.709973-0.580267z m-6.519467-5.123414h-0.003413l-0.795307-0.600746z m-3.31776-2.471253l-0.580266-0.426667 0.580266 0.426667-0.580266-0.426667z m-7.13728-5.044907l0.546134 0.375467a250.108587 250.108587 0 0 0-1.092267-0.74752z m-6.679893-4.39296l-0.249173-0.157013 0.249173 0.157013-0.494933-0.310613z m-3.66592-2.280106l0.24576 0.150186-0.494933-0.303786zM743.389867 44.373333l0.423253 0.249174a249.21088 249.21088 0 0 0-0.477867-0.27648l0.054614 0.027306z" fill="#C40000" p-id="2783"></path><path d="M283.815253 817.923413l-27.21792 101.57056-91.194026 27.886934c-0.098987-5.66272 0.535893-11.42784 1.969493-17.17248l0.290133-1.1264 22.074027-82.39104 94.078293-28.767574z m52.76672-196.932266l-27.21792 101.577386-94.07488 28.76416 27.214507-101.573973 94.078293-28.767573z m52.770134-196.928854l-27.21792 101.57056-94.078294 28.76416 27.21792-101.57056 94.07488-28.76416z m52.763306-196.932266l-27.214506 101.57056-94.07488 28.767573 27.214506-101.573973 94.07488-28.76416z m297.386667 53.234346l130.245973-39.816533a281.883307 281.883307 0 0 1-4.246186 94.549333l-93.67552 28.63104 12.141226-45.315413a176.837973 176.837973 0 0 0 5.911894-53.449387l79.868586-24.415573z m-159.36512-267.933013l25.4976 83.387733a176.9472 176.9472 0 0 0-85.265067 26.129067l-24.90368-81.442133c26.361173-14.127787 54.96832-23.73632 84.671147-28.074667z m90.63424 143.025493l72.267093-111.284906c26.344107 15.428267 49.309013 35.3792 68.266667 58.620586l-48.786773 75.127467a176.489813 176.489813 0 0 0-66.36544-61.5424l46.885546-72.205653z" fill="#FFFFFF" p-id="2784"></path><path d="M338.957653 801.068373l-27.214506 101.57056-55.145814 16.861867 27.214507-101.573973 55.145813-16.858454z m52.770134-196.932266L364.509867 705.706667l-55.145814 16.861866 27.21792-101.573973 55.1424-16.858453z m52.76672-196.932267l-27.21792 101.573973-55.145814 16.858454 27.21792-101.573974 55.145814-16.858453zM348.040533 255.8976l156.2624-47.776427a151.90016 151.90016 0 0 0-16.54784 37.72416l-0.7168 2.577067-16.991573 63.423147-55.145813 16.861866 27.214506-101.573973 62.190934-19.012267z m435.92704 62.518613l-12.141226 45.318827-55.149227 16.861867 17.664-65.911467a153.1904 153.1904 0 0 0 5.16096-34.317653l50.377387-15.40096a176.837973 176.837973 0 0 1-5.911894 53.4528z m-21.449386-140.4928l-31.37536 48.308907c-11.02848-30.651733-32.28672-56.149333-60.371627-70.772053l25.378133-39.079254a176.489813 176.489813 0 0 1 66.368854 61.5424zM605.627733 95.822507l14.19264 46.421333c-30.293333-0.832853-60.040533 10.052267-84.138666 29.7984l-15.315627-50.090667a176.9472 176.9472 0 0 1 85.265067-26.129066z" fill="#F9E5E5" p-id="2785"></path><path d="M682.973867 11.78624c69.707093 18.674347 127.0272 64.979627 161.553066 128.293547a6.826667 6.826667 0 0 1-11.987626 6.536533c-32.768-60.08832-87.063893-103.949653-153.09824-121.644373-135.4752-36.3008-275.694933 49.411413-313.623894 190.96576L174.260907 930.850133c-8.485547 31.655253 10.30144 64.191147 41.95328 72.669867 31.655253 8.485547 64.191147-10.30144 72.67328-41.95328l191.556266-714.909013c21.036373-78.496427 96.54272-126.272853 168.280747-107.052374 71.738027 19.223893 113.240747 98.3552 92.207787 176.848214l-20.548267 76.690773c-8.482133 31.65184 10.304853 64.191147 41.956693 72.669867 31.655253 8.482133 64.191147-10.30144 72.67328-41.956694l20.548267-76.68736c11.291307-42.141013 12.475733-85.500587 3.898027-126.972586a6.826667 6.826667 0 1 1 13.370026-2.7648c9.007787 43.55072 7.765333 89.06752-4.078933 133.270186l-20.548267 76.690774c-10.43456 38.935893-50.455893 62.04416-89.3952 51.6096-38.935893-10.431147-62.04416-50.455893-51.6096-89.3952l20.548267-76.68736c19.141973-71.441067-18.35008-142.923093-82.55488-160.126294-64.2048-17.2032-132.41344 25.954987-151.555413 97.396054L302.076587 965.096107c-10.43456 38.935893-50.455893 62.04416-89.3952 51.6096-38.939307-10.431147-62.04416-50.455893-51.6096-89.3952l191.556266-714.9056c39.84384-148.69504 187.436373-238.912853 330.345814-200.618667z m175.936853 175.141547a6.826667 6.826667 0 1 1 0 13.653333 6.826667 6.826667 0 0 1 0-13.653333z" fill="#4C3030" p-id="2786"></path><path d="M292.273493 502.44608l56.149334 40.789333-8.956587 17.954134 69.655893-3.607894 33.344854 246.4768-55.729494-38.597973-61.016746 62.122667 2.669226-244.19328-97.28 195.017386-20.780373-84.043093-65.877333 6.017707 147.821226-197.935787z" fill="#056639" p-id="2787"></path><path d="M296.287573 496.923307l56.149334 40.789333a6.826667 6.826667 0 0 1 2.095786 8.567467l-3.7376 7.482026 57.9584-3.003733a6.826667 6.826667 0 0 1 7.021227 5.35552l0.095573 0.546133 33.348267 246.480214c0.791893 5.881173-5.77536 9.905493-10.656427 6.526293l-50.998613-35.324587-56.989013 58.023254c-4.307627 4.386133-11.76576 1.286827-11.697494-4.860587l2.34496-214.459733-84.005546 168.410453c-2.833067 5.6832-11.2128 4.754773-12.735147-1.409707l-19.370667-78.349653-60.040533 5.485227c-5.881173 0.535893-9.6256-6.150827-6.089387-10.88512l147.82464-197.935787a6.826667 6.826667 0 0 1 9.48224-1.437013z m106.89536 67.795626l-59.388586 3.078827-8.61184 17.26464-2.46784 225.634987 49.138346-50.025814a6.826667 6.826667 0 0 1 8.758614-0.82944l42.99776 29.784747-30.426454-224.904533zM293.717333 511.931733l-134.621866 180.261547 50.61632-4.621653a6.826667 6.826667 0 0 1 7.246506 5.157546l16.325974 66.030934 88.282453-176.97792 0.22528-20.104534a6.826667 6.826667 0 0 1 5.9392-6.690133l0.53248-0.047787 6.874453-0.3584 4.59776-9.216-46.01856-33.4336z" fill="#4C3030" p-id="2788"></path><path d="M258.228907 408.576c13.195947 9.78944 31.88736 27.58656 56.081066 53.39136l1.655467 1.77152-23.6544 88.285867-2.1504-1.102507c-64.2048-33.122987-99.478187-64.078507-105.826987-92.869973-9.632427-43.666773 25.265493-66.822827 22.248107-66.884267h0.034133c17.442133 0.365227 36.918613 6.509227 51.613014 17.408z m272.442026 75.840853l0.887467 0.877227a51.247787 51.247787 0 0 0-0.96256-0.948907l0.959147 0.948907a51.152213 51.152213 0 0 0-0.887467-0.877227z m-339.705173-91.839146l-0.853333 0.19456 0.853333-0.19456z m338.75968 90.944853l0.375467 0.34816a54.114987 54.114987 0 0 0-0.641707-0.59392l0.641707 0.59392a53.787307 53.787307 0 0 0-0.375467-0.34816z m-336.954027-91.306667l-1.286826 0.252587c0.423253-0.088747 0.853333-0.170667 1.283413-0.252587z m335.981227 90.42944l0.314027 0.279894c-0.324267-0.290133-0.65536-0.580267-0.989867-0.863574l0.989867 0.863574-0.314027-0.279894z m-332.731733-90.938026a60.70272 60.70272 0 0 0-0.167254 0.023893z m331.7248 90.074453l0.201386 0.170667a60.695893 60.695893 0 0 0-0.201386-0.170667z m-330.09664-90.262187l-1.194667 0.136534c0.392533-0.0512 0.791893-0.095573 1.194667-0.136534z m326.912 87.763627l0.559786 0.4096a64.98304 64.98304 0 0 0-0.866986-0.63488l0.866986 0.638293-0.559786-0.413013z m-325.399894-87.90016l-1.09568 0.095573c0.361813-0.034133 0.72704-0.068267 1.092267-0.095573z m324.283734 87.098027l0.38912 0.273066-0.8704-0.610986 0.8704 0.6144a67.150507 67.150507 0 0 0-0.38912-0.27648zM200.635733 391.28064l-0.78848 0.0512 0.78848-0.0512z m321.672534 86.41536l0.09216 0.06144a70.181547 70.181547 0 0 0-0.65536-0.436907l0.65536 0.436907-0.09216-0.06144z m-319.464107-86.514347l-0.60416 0.02048 0.60416-0.02048z m317.105493 84.992l0.443734 0.27648-0.512-0.31744 0.512 0.31744a73.362773 73.362773 0 0 0-0.443734-0.273066zM204.629333 391.15776l-1.20832 0.013653c0.402773-0.006827 0.805547-0.013653 1.20832-0.013653z m314.10176 84.288853l0.59392 0.354987c-0.310613-0.187733-0.62464-0.375467-0.94208-0.559787l0.94208 0.559787a75.605333 75.605333 0 0 0-0.59392-0.354987z m-312.436053-84.278613l-1.28-0.013653c0.423253 0 0.853333 0.006827 1.28 0.013653z m311.681707 83.838293a77.769387 77.769387 0 0 0-0.48128-0.27648z m-132.348587 7.40352c35.027627-10.683733 60.88704-16.981333 77.581653-18.90304 18.172587-2.092373 38.116693 2.321067 53.4016 10.728107-2.43712-1.082027 15.889067 36.21888-14.144853 69.061973-20.114773 22.002347-66.945707 31.133013-140.4928 27.398827l23.6544-88.285867z m-196.181333-89.470293l-1.34144 0.351573c0.443733-0.12288 0.887467-0.238933 1.34144-0.351573z" fill="#009042" p-id="2789"></path><path d="M206.58176 391.168c3.017387 0.06144-31.880533 23.217493-22.248107 66.884267 6.42048 29.108907 42.41408 60.43648 107.973974 93.97248l-3.785387 14.1312-73.87136 5.061973a100.36224 100.36224 0 0 1-18.254507 0.17408c-47.261013-3.95264-46.554453-56.56576-44.393813-96.699733 2.16064-40.1408 16.61952-75.9808 36.102827-81.404587 5.625173-1.563307 11.905707-2.2528 18.476373-2.116267z m310.060373 83.080533c5.758293 3.170987 10.8544 6.908587 14.94016 11.072854 14.165333 14.4384 8.762027 52.708693-9.434453 88.548693-18.19648 35.84-43.892053 81.75616-86.797653 61.549227a100.36224 100.36224 0 0 1-15.721814-9.280854l-61.44-41.3184 3.785387-14.1312c73.547093 3.7376 120.378027-5.393067 140.4928-27.395413 30.173867-33.000107 11.533653-70.498987 14.175573-69.044907z" fill="#056639" p-id="2790"></path><path d="M159.300267 546.304c-4.744533-10.059093 13.448533-36.631893 56.702293-23.446187 13.83424 4.21888 38.49216 16.848213 73.966933 37.894827l-1.447253 5.399893-73.87136 5.065387a100.36224 100.36224 0 0 1-18.254507 0.17408c-19.329707-1.61792-30.634667-11.373227-37.09952-25.088z m320.720213 85.940907c-12.45184 8.64256-27.122347 11.43808-44.670293 3.1744a100.36224 100.36224 0 0 1-15.721814-9.280854l-61.44-41.3184 1.44384-5.399893c41.24672-0.488107 68.9152 0.90112 83.00544 4.164267 44.055893 10.205867 46.523733 42.318507 37.382827 48.66048z" fill="#009042" p-id="2791"></path><path d="M289.969493 560.75264l-1.447253 5.399893-73.87136 5.065387a100.36224 100.36224 0 0 1-18.254507 0.17408c-19.329707-1.61792-30.634667-11.373227-37.09952-25.088-1.399467-2.9696-0.79872-7.38304 1.856854-11.78624 1.020587-1.6896 2.341547-3.3792 3.97312-4.98688 1.604267-1.583787 8.942933 18.824533 29.678933 25.146027 13.83424 4.21888 45.554347 6.2464 95.163733 6.075733z m69.666134 18.670933c42.878293 24.94464 71.36256 39.048533 85.4528 42.315094 21.118293 4.89472 37.67296-9.1136 38.273706-6.939307 0.607573 2.208427 0.91136 4.334933 0.948907 6.30784 0.098987 5.14048-1.590613 9.263787-4.29056 11.137707-12.45184 8.64256-27.122347 11.43808-44.670293 3.1744a100.36224 100.36224 0 0 1-15.721814-9.280854l-61.44-41.3184 1.44384-5.399893z" fill="#056639" p-id="2792"></path><path d="M289.969493 560.75264l-1.447253 5.399893-73.87136 5.065387a100.36224 100.36224 0 0 1-18.254507 0.17408c-19.329707-1.61792-30.634667-11.373227-37.09952-25.088-1.399467-2.9696-0.79872-7.38304 1.856854-11.78624 1.020587-1.6896 2.341547-3.3792 3.97312-4.98688 1.604267-1.583787 8.942933 18.824533 29.678933 25.146027 13.83424 4.21888 45.554347 6.2464 95.163733 6.075733z m69.666134 18.670933c42.878293 24.94464 71.36256 39.048533 85.4528 42.315094 21.118293 4.89472 37.67296-9.1136 38.273706-6.939307 0.607573 2.208427 0.91136 4.334933 0.948907 6.30784 0.098987 5.14048-1.590613 9.263787-4.29056 11.137707-12.45184 8.64256-27.122347 11.43808-44.670293 3.1744a100.36224 100.36224 0 0 1-15.721814-9.280854l-61.44-41.3184 1.44384-5.399893z" fill="#056639" p-id="2793"></path><path d="M223.65184 392.98048a6.826667 6.826667 0 0 1-7.717547 5.802667c-9.519787-1.348267-18.54464-0.969387-25.954986 1.092266-15.158613 4.21888-29.026987 36.375893-31.115947 75.19232l-0.208213 4.10624-0.187734 4.164267c-0.768 18.807467-0.334507 32.269653 1.938774 43.758933a35.044693 35.044693 0 0 1 6.417066-5.485226c11.383467-7.604907 27.306667-9.710933 46.199467-4.90496l1.49504 0.395946 1.512107 0.423254 2.276693 0.68608c13.390507 4.253013 35.505493 15.435093 66.6112 33.621333l0.361813 0.211627 23.128747-86.306134-9.448107-9.618773c-20.19328-20.442453-33.949013-33.56672-41.096533-39.236267a6.826667 6.826667 0 0 1 8.485547-10.693973l1.573546 1.273173 1.140054 0.955734c9.775787 8.280747 26.9824 25.074347 51.83488 50.56512a6.826667 6.826667 0 0 1 1.706666 6.53312l-27.4432 102.413653a6.826667 6.826667 0 0 1-6.126933 5.044907l-73.87136 5.061973c-6.382933 0.638293-12.916053 0.703147-19.29216 0.170667-24.71936-2.06848-39.847253-16.203093-46.711467-39.66976-4.88448-16.698027-5.512533-34.792107-3.928746-64.2048 2.372267-44.100267 18.414933-81.3056 41.089706-87.610027 9.335467-2.597547 20.241067-3.058347 31.52896-1.460907a6.826667 6.826667 0 0 1 5.802667 7.717547z m312.804693 87.56224c16.482987 16.797013 11.776 57.0368-8.22272 96.416427l-2.8672 5.594453c-11.885227 22.900053-20.978347 36.90496-32.63488 48.042667-17.681067 16.892587-37.84704 21.568853-60.289706 11.001173a106.30144 106.30144 0 0 1-16.622934-9.792853l-61.44-41.3184a6.826667 6.826667 0 0 1-2.78528-7.43424l27.4432-102.413654a6.826667 6.826667 0 0 1 4.601174-4.7616c35.392853-10.79296 61.590187-17.175893 78.789973-19.155626 26.733227-3.078827 57.350827 6.81984 74.028373 23.821653zM172.509867 530.1248c-4.49536 3.003733-7.355733 6.884693-8.413867 9.997653 5.82656 14.90944 16.145067 23.074133 32.914773 24.477014 5.536427 0.464213 11.240107 0.4096 17.012054-0.16384l64.576853-4.430507-2.904747-1.693013c-28.910933-16.75264-49.380693-26.958507-61.166933-30.549334-18.066773-5.50912-32.443733-4.027733-42.018133 2.362027z m268.970666 58.446507c-11.752107-2.72384-33.887573-4.11648-66.17088-4.12672l-5.420373 0.017066 53.71904 36.133547c4.713813 3.3792 9.6256 6.280533 14.650027 8.649387 15.209813 7.161173 28.218027 5.256533 40.707413-4.717227 0.65536-3.218773 0.12288-8.031573-2.280107-12.898987-5.092693-10.32192-16.80384-18.793813-35.20512-23.057066z m22.50752-118.285654l-2.297173 0.283307c-14.5408 1.931947-35.863893 7.031467-63.853227 15.29856l-6.597973 1.969493-23.149227 86.38464h0.395947c36.027733-0.19456 60.7744 1.181013 74.496 4.191574l2.317653 0.546133c20.415147 5.051733 34.194773 15.21664 40.57088 28.13952 1.297067 2.628267 2.235733 5.3248 2.819414 7.9872 8.280747-9.448107 15.858347-21.92384 25.4976-40.645973l1.87392-3.662507c17.599147-34.6624 21.66784-69.440853 10.6496-80.674133-13.626027-13.892267-40.041813-22.432427-62.723414-19.817814z" fill="#4C3030" p-id="2794"></path><path d="M336.950613 530.69824m-61.130174-16.379781a63.286613 63.286613 0 1 0 122.260349 32.759562 63.286613 63.286613 0 1 0-122.260349-32.759562Z" fill="#FACB62" p-id="2795"></path><path d="M353.3312 469.568853c33.757867 9.045333 53.794133 43.748693 44.7488 77.509974-9.045333 33.757867-43.748693 53.794133-77.509973 44.7488-4.778667-1.28-9.284267-3.072-13.469014-5.307734 28.757333 0.959147 55.42912-17.906347 63.194454-46.88896 7.765333-28.9792-5.89824-58.65472-31.279787-72.198826 4.737707 0.157013 9.536853 0.853333 14.31552 2.136746z" fill="#E8A44E" p-id="2796"></path><path d="M355.099307 462.974293c37.399893 10.021547 59.5968 48.469333 49.575253 85.869227-10.021547 37.403307-48.469333 59.600213-85.869227 49.578667-37.403307-10.021547-59.600213-48.469333-49.578666-85.869227 10.021547-37.403307 48.469333-59.600213 85.87264-49.578667z m-3.536214 13.18912c-30.119253-8.072533-61.078187 9.803093-69.147306 39.922347-8.072533 30.119253 9.803093 61.078187 39.922346 69.147307 30.119253 8.072533 61.078187-9.803093 69.147307-39.922347 8.072533-30.119253-9.803093-61.078187-39.922347-69.147307z" fill="#4C3030" p-id="2797"></path><path d="M239.097173 400.090453m-6.594053-1.766871a6.826667 6.826667 0 1 0 13.188107 3.533743 6.826667 6.826667 0 1 0-13.188107-3.533743Z" fill="#4C3030" p-id="2798"></path></svg>