<?xml version="1.0" standalone="no"?><!DOCTYPE svg PUBLIC "-//W3C//DTD SVG 1.1//EN" "http://www.w3.org/Graphics/SVG/1.1/DTD/svg11.dtd"><svg t="1608700746207" class="icon" viewBox="0 0 1024 1024" version="1.1" xmlns="http://www.w3.org/2000/svg" p-id="2942" xmlns:xlink="http://www.w3.org/1999/xlink" width="48" height="48"><defs><style type="text/css"></style></defs><path d="M401.952681 215.61373c0-24.067631 19.506837-43.574468 43.574468-43.574468h132.945702c13.725957 0 25.963121 6.343716 33.951773 16.260539-14.906099-10.468766-22.114043-14.851631-21.631092-13.144964 8.569645 30.11722 6.637844 49.998071-15.585135 63.411745-22.222979 13.413674-48.792511 7.146213-99.974354 13.994666-34.12244 4.564426-58.54956 16.456624-73.281362 35.676596v-72.624114z" fill="#C40000" p-id="2943"></path><path d="M475.234043 252.561248c51.181844-6.848454 77.751376-0.580993 99.974354-13.994666 22.222979-13.413674 24.15478-33.294525 15.585135-63.415376-0.580993-2.033475 9.840567 4.626156 31.253787 19.986156v93.100482H401.952681c14.731801-19.219972 39.158922-31.11217 73.27773-35.676596z" fill="#9E0000" p-id="2944"></path><path d="M488.444369 33.450667a7.262411 7.262411 0 0 1 4.905759 13.671489 60.622979 60.622979 0 0 0-40.117561 57.053504c0 33.468823 27.132369 60.601191 60.604823 60.601191 33.465191 0 60.59756-27.132369 60.59756-60.604823a60.612085 60.612085 0 0 0-36.675177-55.695432 7.262411 7.262411 0 0 1 5.737305-13.34105 75.133277 75.133277 0 0 1 45.462695 69.040114c0 24.873759-12.091915 46.929702-30.72 60.601191h20.233078c28.076482 0 50.836879 22.760397 50.836879 50.836879v79.886525H394.69027v-79.886525c0-28.076482 22.760397-50.836879 50.836879-50.836879h23.900596c-18.628085-13.671489-30.72-35.723801-30.72-60.604823 0-31.95461 20.142298-60.096454 49.736624-70.721361z m90.028482 145.851007H445.527149c-20.055149 0-36.312057 16.256908-36.312057 36.312056v65.361703h205.569816v-65.361703c0-20.055149-16.256908-36.312057-36.312057-36.312056zM515.631206 29.049645a7.262411 7.262411 0 1 1 0 14.524823 7.262411 7.262411 0 0 1 0-14.524823z" fill="#4C3030" p-id="2945"></path><path d="M512.003631 990.055489l5.940653-0.043574c-1.979007 0.032681-3.958014 0.047206-5.944284 0.047206h0.003631l5.940653-0.047206z m-6.158525-0.050837l0.566468 0.010894h-0.290496l-0.275972-0.010894z m-6.528907-0.163404l1.485163 0.047206-1.488795-0.047206h0.003632z m-5.490383-0.232397l0.537418 0.025419-0.544681-0.025419h0.007263z m-11.736057-0.777078l0.359489 0.02905-0.359489-0.02905z m-16.53288-1.742979l-0.435744-0.058099 0.435744 0.054468-0.87512-0.112567z m-18.217758-2.828709l1.270922 0.228766a357.782695 357.782695 0 0 1-1.270922-0.228766z m-5.348766-1.016737l0.570099 0.116198-0.570099-0.112567z m-16.551036-3.674781l0.326809 0.079887-0.214241-0.050837-0.112568-0.02905z m-0.101674-0.025418l0.101674 0.025418-0.101674-0.025418z m-5.42139-1.387121l0.599149 0.159773-0.599149-0.159773z m-5.737305-1.56868l1.238241 0.348595-0.75529-0.21061-0.482951-0.137985z m-0.27234-0.072625l0.27234 0.072625-0.27234-0.072625z m-4.894865-1.423432l0.257815 0.072624a343.392227 343.392227 0 0 1-0.254184-0.072624z m-10.795575-3.413334l0.424851 0.145249a357.492199 357.492199 0 0 1-0.424851-0.145249z m-5.530326-1.891858l0.617305 0.217873-0.617305-0.217873z m-15.977305-6.05322l0.493844 0.199717 0.490213 0.199716-0.980426-0.399433z m-10.138326-4.302978l1.074837 0.472056-1.074837-0.472056z m-5.170837-2.342128l0.27234 0.127092-0.27234-0.127092z m-4.956596-2.334865l0.446638 0.217872-0.446638-0.217872z m-4.898496-2.400227l0.697191 0.344964-0.697191-0.344964z m-5.174468-2.639887l0.769815 0.399433-0.769815-0.399433z m-5.101844-2.705248l0.900539 0.486582-0.900539-0.486582z m-9.597277-5.381447l0.918695 0.533788a359.939631 359.939631 0 0 1-0.918695-0.533788z m-4.720567-2.788766l0.334071 0.199717 0.326808 0.196085-0.657248-0.395802z m-13.845788-8.76573l0.315915 0.21061-0.312283-0.21061z m-5.101844-3.456908l1.394383 0.955007-0.679035-0.464794-0.715348-0.490213z m-4.27756-2.999376l1.082099 0.762553-1.082099-0.762553z m-4.535376-3.28261l0.366752 0.265078-0.366752-0.268709z m302.68278-177.631319l71.128057 87.101731c-62.932426 54.155801-144.827007 86.891121-234.365276 86.89112-80.558298 0-154.929021-26.496908-214.869334-71.251518a359.286014 359.286014 0 0 1-28.6139-44.90712l47.231092-57.834213 80.031773 97.995348 0.501106 0.580992a12.70922 12.70922 0 0 0 19.18366-0.580992l80.028142-97.995348 80.031773 97.995348 0.501106 0.580992a12.70922 12.70922 0 0 0 19.18366-0.580992l80.028141-97.995348z m-311.165276 171.193192l0.156142 0.123461-0.156142-0.123461z m-12.745532-10.446979l0.290496 0.250553-0.290496-0.250553z m-12.491348-11.238582l0.243291 0.228766-0.246922-0.228766z m-11.765106-11.601702l0.399433 0.406695-0.399433-0.406695h0.003631z m-4.041532-4.24851l1.024 1.089361-1.020369-1.08573z m-3.482326-3.765561l0.30139 0.326809-0.297759-0.326809z m-7.298724-8.264624l0.337703 0.399433-0.337703-0.399433z m446.024625-45.241191l-0.254185 0.239659 1.666724-1.572312-1.663093 1.572312 0.254185-0.239659z m3.533163-3.369759l0.457532-0.443007z m93.176737-230.973731l13.791319 16.866951c-10.109277 82.072511-47.881078 155.579007-103.699971 210.911319l-79.995461-97.951773-0.501107-0.580993a12.70922 12.70922 0 0 0-19.183659 0.580993L512 812.565787l-80.031773-97.995347-0.501106-0.580993a12.70922 12.70922 0 0 0-19.18366 0.580993L332.255319 812.565787l-80.031773-97.995347-0.501106-0.580993a12.70922 12.70922 0 0 0-19.18366 0.580993l-49.667631 60.822695a357.092766 357.092766 0 0 1-27.869504-102.269277l0.497476 4.012482 6.855716 5.602951 80.028142-97.995348 80.031773 97.995348 0.501106 0.580993a12.70922 12.70922 0 0 0 19.18366-0.580993l80.028142-97.995348 80.031773 97.995348 0.501106 0.580993a12.70922 12.70922 0 0 0 19.18366-0.580993l80.028141-97.995348 80.031773 97.995348 0.501107 0.580993a12.70922 12.70922 0 0 0 19.183659-0.580993l80.028142-97.995348zM182.976454 775.625532a357.717333 357.717333 0 0 0 0.11983 0.279603z m-28.940709-111.750355a360.738496 360.738496 0 0 0 0.192454 2.073419z m-0.399433-4.629787l0.265078 3.16278c-0.094411-1.05305-0.18156-2.106099-0.265078-3.16278z m-0.374014-5.214411l0.254184 3.671149a362.503262 362.503262 0 0 1-0.254184-3.671149zM512 271.080397c80.572823 0 154.95444 26.507801 214.898383 71.276936l1.86644 2.538213c43.61078 59.490043 69.356028 132.894865 69.356028 212.309333 0 2.487376-0.021787 4.971121-0.072624 7.443972l-6.587007-8.035858-0.508369-0.580993a12.70922 12.70922 0 0 0-19.180028 0.580993L691.744681 654.60834l-80.031773-97.995347-0.501107-0.580993a12.70922 12.70922 0 0 0-19.183659 0.580993L512 654.60834l-80.031773-97.995347-0.501106-0.580993a12.70922 12.70922 0 0 0-19.18366 0.580993L332.255319 654.60834l-80.031773-97.995347-0.501106-0.580993a12.70922 12.70922 0 0 0-19.18366 0.580993l-79.294638 97.09844A364.957957 364.957957 0 0 1 152.510638 630.569759c0-198.539801 160.94956-359.489362 359.489362-359.489362z m359.48573 359.017305l0.003632 0.472057c0 1.98627-0.014525 3.968908-0.047206 5.944284l0.047206-5.944284-0.003632-0.472057z m-0.036312-4.448227l0.025419 1.83739 0.010893 2.614468-0.036312-4.451858z m-0.010893-1.027631l0.007262 0.355858 0.003631 0.671773-0.010893-1.027631z m-75.638014-26.318979l-0.181561 1.554156c0.09078-0.748028 0.174298-1.496057 0.257816-2.244085l-0.254184 2.244085 0.177929-1.554156z m1.132936-11.612595l-0.036312 0.435744 0.11983-1.488794-0.11983 1.488794 0.036312-0.435744z m0.424851-5.846242l-0.072624 1.089362 0.145248-2.16783-0.145248 2.164199 0.072624-1.089362z m0.334071-5.87529l-0.079887 1.59773 0.108936-2.200511-0.108936 2.19688 0.079887-1.594099z m0.232397-5.639263l0.007262-0.257815z m47.241986-74.036652l0.39217 0.969532-0.196085-0.490213-0.196085-0.479319zM325.196255 408.917333c-22.92017 22.92017-29.307461 53.694638-14.267007 68.738724 15.040454 15.040454 45.814922 8.653163 68.738724-14.270639 22.92017-22.92017 29.30383-53.694638 14.263376-68.735092-15.040454-15.040454-45.814922-8.653163-68.738724 14.267007z m498.146951 41.809702l0.246922 0.432114-0.246922-0.432114z m-21.580256-32.967716l0.35949 0.493844-0.363121-0.493844z m-9.826042-12.745532l-0.108936-0.137986 0.297758 0.370383-0.188822-0.236028z m-18.297646-20.977475l0.682667 0.726241-0.341333-0.36312-0.341334-0.363121z m-11.151432-11.318468l0.228766 0.221504-0.228766-0.217873z m-0.228766-0.217872l0.11983 0.108936 0.108936 0.108936-0.228766-0.217872z m-16.304114-14.884312l0.203348 0.177929-0.203348-0.177929z" fill="#009042" p-id="2946"></path><path d="M781.617021 742.70139l47.234724 57.834213-0.09078 0.163404c-60.673816 112.73078-179.766468 189.360113-316.760965 189.360114-117.977872 0-222.687319-56.835631-288.234213-144.616398 59.940312 44.75461 134.311035 71.251518 214.869334 71.251518 95.17027 0 181.701901-36.980199 246.010553-97.359886a361.628142 361.628142 0 0 1-11.645277 10.468766l8.900085 10.893617 0.508369 0.580992a12.70922 12.70922 0 0 0 19.180028-0.580992l80.028142-97.995348z m-93.169475 73.012653c-0.711716 0.689929-1.423433 1.368965-2.142411 2.051631z m4.023376-3.950752l-0.334071 0.334071-0.39217 0.468425-0.036312-0.043574a361.657191 361.657191 0 0 1 0.762553-0.762553z m3.544057-3.584c-1.281816 1.314496-2.578156 2.62173-3.878128 3.918071l1.677617-1.681249z m3.798241-3.954383c-0.831546 0.878752-1.663092 1.750241-2.501901 2.618099z m4.048794-4.350185c-1.056681 1.154723-2.124255 2.305816-3.195461 3.449646z m3.692936-4.096c-0.864227 0.973163-1.732085 1.939064-2.607205 2.904965z m123.707915 0.188823l0.261447-0.515631 0.072624-0.127092-0.334071 0.642723z m-120.087603-4.328397c-0.93322 1.082099-1.873702 2.160567-2.817815 3.231773z m3.776454-4.455489c-1.078468 1.289078-2.160567 2.570894-3.25356 3.849078z m3.1301-3.812766c-0.748028 0.922326-1.503319 1.841021-2.25861 2.759716z m118.12312 2.708879l0.137986-0.286865z m-114.829617-6.833929c-0.744397 0.944113-1.492426 1.888227-2.247716 2.825078z m117.255263 1.681248l0.087148-0.188822z m-113.504227-6.53617c-0.922326 1.212823-1.851915 2.422014-2.788766 3.623943z m70.590638-175.329135l-0.308653 2.556369 66.236823 81.121135 6.855716-5.599319-0.036312 0.294127a357.005617 357.005617 0 0 1-27.332085 97.944511l-49.674893-60.80817-0.501107-0.580993a12.70922 12.70922 0 0 0-19.183659 0.580993l-32.513816 39.830695-0.758922 1.147461a357.361475 357.361475 0 0 0 57.213277-156.486809z m-67.485958 171.175036c-0.689929 0.940482-1.383489 1.870071-2.08068 2.799659z m9.7861-13.954724a360.41895 360.41895 0 0 1-2.846865 4.204936z m131.707461-89.87234l0.054468-0.533787z m0.57373-6.35461l-0.032681 0.377645 0.087149-1.049418-0.087149 1.049418 0.032681-0.377645z m0.399433-5.457702l0.025418-0.39217z m-141.932936-309.705532l-1.891858-2.556369C814.65373 407.88244 871.489362 512.588255 871.489362 630.569759c0 7.77078-0.246922 15.483461-0.733504 23.13078l-72.707631-89.029901a364.75461 364.75461 0 0 1 0.072624-7.465759c0-79.414468-25.745248-152.819291-69.356028-212.309333l-1.891858-2.56z m68.132312 242.23773a360.767546 360.767546 0 0 1-1.488795 14.488511l0.435745-3.689305c0.203348-1.801078 0.39217-3.609418 0.570099-5.417759z m0.39217-5.257985c-0.083518 1.260028-0.174298 2.520057-0.27234 3.776453z m0.399433-6.80488c-0.079887 1.608624-0.167035 3.209986-0.26871 4.811348z" fill="#056639" p-id="2947"></path><path d="M325.195233 408.916311a38.516199 58.691177 45 1 0 54.47013 54.47013 38.516199 58.691177 45 1 0-54.47013-54.47013Z" fill="#FFFFFF" p-id="2948"></path><path d="M251.72244 713.989447l0.504737 0.580993L332.255319 812.565787l80.031773-97.995347a12.70922 12.70922 0 0 1 19.180029-0.580993l0.504737 0.580993L512 812.565787l80.031773-97.995347a12.70922 12.70922 0 0 1 19.180028-0.580993l0.504738 0.580993 79.995461 97.951773a361.668085 361.668085 0 0 1-18.707972 17.277276l-71.131688-87.098099-80.031773 97.995348a12.70922 12.70922 0 0 1-19.180028 0.580992l-0.504738-0.580992-80.028141-97.995348-80.031773 97.995348a12.70922 12.70922 0 0 1-19.180029 0.580992l-0.504737-0.580992-80.028142-97.995348-47.234724 57.834213a358.000567 358.000567 0 0 1-12.273475-25.142468l49.664-60.822695a12.70922 12.70922 0 0 1 19.18366-0.580993z m487.547461 40.397163l-0.998582 1.510581 0.998582-1.510581z m89.581844 46.152624c0.733504-1.368965 1.459745-2.74156 2.178723-4.117787z m4.302978-8.264624l-1.394383 2.734298c0.617305-1.198298 1.230979-2.407489 1.83739-3.616681l-1.83739 3.616681c0.468426-0.907801 0.93322-1.819234 1.394383-2.734298z m2.069788-4.175887l-0.87149 1.77566c0.544681-1.096624 1.082099-2.196879 1.612256-3.300766l-1.608625 3.297135 0.87149-1.772029z m2.022581-4.208567l-0.588255 1.245504c0.519262-1.089362 1.034894-2.185986 1.543262-3.28261l-1.546893 3.28261c0.199716-0.413957 0.399433-0.827915 0.591886-1.245504z m3.881759-8.504284zM251.72244 556.032l0.504737 0.580993L332.255319 654.60834l80.031773-97.995347a12.70922 12.70922 0 0 1 19.180029-0.580993l0.504737 0.580993L512 654.60834l80.031773-97.995347a12.70922 12.70922 0 0 1 19.180028-0.580993l0.504738 0.580993 80.028142 97.995347 80.031773-97.995347a12.70922 12.70922 0 0 1 19.180028-0.580993l0.504738 0.580993 6.587007 8.054014a362.441532 362.441532 0 0 1-2.639887 36.951149l-13.791319-16.874213-80.031773 97.995348a12.70922 12.70922 0 0 1-19.180028 0.580993l-0.504738-0.580993-80.028142-97.995348-80.031773 97.995348a12.70922 12.70922 0 0 1-19.180028 0.580993l-0.504738-0.580993-80.028141-97.995348-80.031773 97.995348a12.70922 12.70922 0 0 1-19.180029 0.580993l-0.504737-0.580993-80.028142-97.995348L162.351206 682.739291l-6.852085-5.602951a361.097986 361.097986 0 0 1-2.254979-23.421276l79.294638-97.09844a12.70922 12.70922 0 0 1 19.18366-0.584624z m616.778439 121.107972z m1.0821-9.321305l-0.305022 2.839603c0.156142-1.390752 0.30139-2.785135 0.439376-4.183149l-0.435744 4.183149 0.30139-2.839603z m0.450269-4.684256l-0.177929 1.935433c0.134355-1.394383 0.254184-2.792397 0.374014-4.190411l-0.374014 4.190411 0.18156-1.935433z m0.664511-8.536964l0.058099-0.889646a362.321702 362.321702 0 0 1-0.058099 0.889646z m0.058099-0.893277l-0.018156 0.319546 0.018156-0.319546z" fill="#FFFFFF" p-id="2949"></path><path d="M790.956482 713.989447l0.504738 0.580993 49.667631 60.811801a357.564823 357.564823 0 0 1-2.926752 6.470809l0.744397-1.608624c-0.75166 1.634043-1.514213 3.268085-2.287659 4.891234l1.543262-3.28261c-0.733504 1.579574-1.477901 3.155518-2.236822 4.720567l0.689929-1.437957c-0.755291 1.586837-1.521475 3.16278-2.298554 4.735092l1.608625-3.297135c-0.777078 1.615887-1.56505 3.220879-2.367547 4.81861l0.758922-1.521475c-0.853333 1.721191-1.71756 3.435121-2.596312 5.138156l1.83739-3.616681c-0.766184 1.532369-1.543262 3.057475-2.331234 4.575319l0.493844-0.958638c-0.955007 1.851915-1.924539 3.696567-2.908595 5.526695l-47.234724-57.834213-80.031773 97.995348a12.70922 12.70922 0 0 1-19.180028 0.580992l-0.504738-0.580992-8.900085-10.893617a361.668085 361.668085 0 0 0 18.707972-17.284539l0.036312 0.047205 0.39217-0.472057a361.221447 361.221447 0 0 0 47.122156-57.692595l32.513816-39.830695a12.70922 12.70922 0 0 1 19.183659-0.580993z m7.091745-149.315177l72.707631 89.0299c-0.152511 2.396596-0.326809 4.78956-0.526525 7.175263l0.108937-1.307234c-0.145248 1.83739-0.308652 3.667518-0.482951 5.497645l0.374014-4.190411c-0.156142 1.870071-0.326809 3.732879-0.508368 5.592056l0.134354-1.401645a360.731234 360.731234 0 0 1-0.577362 5.588426l0.439376-4.183149c-0.18156 1.851915-0.381277 3.70383-0.591886 5.544851l0.15251-1.361702a360.059461 360.059461 0 0 1-0.653617 5.51217l-0.123461 0.969532-6.855716 5.599319-66.236823-81.121135c1.496057-12.139121 2.385702-24.463433 2.639887-36.947518z" fill="#B2CBC6" p-id="2950"></path><path d="M512 263.817986c202.548652 0 366.751773 164.203121 366.751773 366.751773s-164.203121 366.751773-366.751773 366.751773-366.751773-164.203121-366.751773-366.751773c0-35.876312 5.156312-71.066326 15.189333-104.789333a7.262411 7.262411 0 0 1 13.922043 4.139574A352.277787 352.277787 0 0 0 159.77305 630.57339c0 194.53095 157.696 352.22695 352.22695 352.22695s352.22695-157.696 352.22695-352.22695-157.696-352.22695-352.22695-352.22695c-123.297589 0-235.599887 63.854752-299.454638 166.683234a7.262411 7.262411 0 1 1-12.338837-7.661844C266.683007 330.308993 383.629617 263.817986 512 263.817986zM174.297872 493.843972a7.262411 7.262411 0 1 1 0 14.524822 7.262411 7.262411 0 0 1 0-14.524822z" fill="#4C3030" p-id="2951"></path></svg>