<?xml version="1.0" standalone="no"?><!DOCTYPE svg PUBLIC "-//W3C//DTD SVG 1.1//EN" "http://www.w3.org/Graphics/SVG/1.1/DTD/svg11.dtd"><svg t="1608702501542" class="icon" viewBox="0 0 1024 1024" version="1.1" xmlns="http://www.w3.org/2000/svg" p-id="3262" xmlns:xlink="http://www.w3.org/1999/xlink" width="48" height="48"><defs><style type="text/css"></style></defs><path d="M642.289135 619.870142l37.187717-21.470968 102.978064 178.360981-49.730064-0.254349z" fill="#FACB62" p-id="3263"></path><path d="M695.451252 627.92671l19.697135 0.023122 85.71871 148.470091-68.162065 0.049548-0.006606-0.00991 48.474839-0.056155-85.71871-148.476696z" fill="#E8A44E" p-id="3264"></path><path d="M302.509419 627.61951L216.592516 776.443045l49.739974-0.270864 85.712104-148.460181z" fill="#FACB62" p-id="3265"></path><path d="M370.674787 627.672361l-85.69889 148.437058-19.707045 0.033033 85.7088-148.453575 19.697135-0.016516z" fill="#E8A44E" p-id="3266"></path><path d="M725.034942 776.400103l-85.989574-148.935845 83.472516 0.036336 85.992877 148.942451-83.475819-0.042942z m-70.286039-148.166193l85.593187 148.248774 52.917678-0.033032-85.768258-148.552671-52.742607 0.336929zM200.175484 791.657703l62.589522 36.137291 115.649239-200.31422-83.697135 0.426116L200.175484 791.657703z m162.911793-164.054709l-105.161496 182.139871-39.701471-22.924388 91.899045-159.172542 52.963922-0.042941z" fill="#4C3030" p-id="3267"></path><path d="M906.233394 386.801135l-55.10111 162.439433c-16.205626 46.291406-62.305445 77.262452-114.899407 77.262451H280.727948c-52.593961 0-98.693781-30.971045-114.899406-77.262451L52.679845 215.687432c170.856052-31.611871 289.603716-20.678194 356.236387 32.810942 99.945703 80.228748 126.14689 189.5424 240.094968 189.5424 75.967587 0 161.709419-17.077677 257.222194-51.239639z" fill="#C40000" p-id="3268"></path><path d="M198.639484 516.429626c16.202323 46.291406 62.302142 60.858632 114.899406 60.858632H703.421935c52.593961 0 93.689394-10.154116 116.967226-41.002942 23.271226-30.852129 72.779974-110.961961 85.844233-149.484181l-55.10111 162.439433c-16.205626 46.291406-62.305445 77.262452-114.899407 77.262451H280.727948c-52.593961 0-98.693781-30.971045-114.899406-77.262451L52.679845 215.687432z" fill="#9E0000" p-id="3269"></path><path d="M413.051871 243.345342c18.537703 14.881032 35.446916 31.360826 53.036594 51.090993l2.520361 2.840775c11.267303 12.783484 43.972542 52.818581 50.612026 60.802477l2.328774 2.748284 2.850684 3.296619c41.600826 47.734916 74.378735 67.309832 124.61089 67.309833 75.148387 0 160.1536-16.932335 254.999123-50.853162l12.872671-4.601393-59.51422 175.444232c-17.153652 48.993445-65.783742 81.688774-121.135897 81.688774H280.727948c-55.352155 0-103.985548-32.695329-121.155716-81.751535L43.969239 210.580645l7.508232-1.387355c172.567123-31.932284 293.075406-20.833445 361.571097 34.152052z m478.373161 155.624877c-89.388594 30.435923-170.185497 45.677006-242.413832 45.677007-55.979768 0-92.249187-22.438813-137.500077-75.230968l-2.394839-2.824258c-6.798039-8.168877-39.351329-48.018994-50.420439-60.581161l-2.454297-2.768104c-17.140439-19.224774-33.544258-35.212387-51.464258-49.594632-63.798503-51.213213-178.2784-62.430968-343.383535-32.834064l110.671277 326.243096c15.24769 43.562942 58.797419 72.839432 108.662916 72.839433h455.504929c49.865497 0 93.415226-29.27649 108.643097-72.779974l50.744155-149.583278-4.195097 1.436903z" fill="#4C3030" p-id="3270"></path><path d="M864.602839 509.529187l0.244438-0.7168 2.421265-7.144877-2.665703 7.861677z m7.564387-22.306684l-0.518607 1.532697 2.47742-7.293523-1.95551 5.760826zM408.919535 248.501677c99.945703 80.228748 126.14689 189.5424 240.094968 189.5424 75.967587 0 161.709419-17.077677 257.222194-51.239638l-8.750245 25.798193c3.451871-10.415071-96.801032 73.794065-251.068284 73.794065-154.359742 0-176.524387-113.218065-271.234478-191.963665-63.141161-52.494865-168.236594-71.653574-315.286296-57.472826l-7.214246-21.269471c170.856052-31.611871 289.603716-20.678194 356.236387 32.810942z m-267.164903 229.765781l1.651613 4.875561z m733.956955-1.469935l-0.574761 1.694554 4.333832-12.78018-3.759071 11.085626z m-741.435458-20.572491l3.607123 10.626478z m746.112826 6.784826l-0.402994 1.189161 3.488207-10.286245-3.085213 9.097084z m4.951535-14.596955l-0.290684 0.852232 4.337136-12.783483-4.046452 11.931251zM129.849806 443.193806l1.364233 4.023329-1.364233-4.026632z m-5.129909-15.125471l3.441961 10.150813z m766.047793 4.323923l-0.363355 1.076852-0.488877 1.4336 0.852232-2.510452z m1.717678-5.060542l-0.475665 1.393961 1.321291-3.897806-0.845626 2.503845z m3.392413-9.998864l-0.303897 0.891871 0.660645-1.952207 0.099097-0.290684-0.455845 1.35102zM92.903226 334.269935l6.940077 20.453575-6.936774-20.453575z m-28.351587-83.578219l0.459148 1.347716-0.459148-1.347716z m81.698684 240.838194l19.578219 57.707355z m705.773832 55.084593l-0.072671 0.211407-0.8192 2.411355 0.891871-2.622762z" fill="#9E0000" p-id="3271"></path><path d="M49.723458 235.176465c166.254658-30.762942 285.980077-20.034065 346.785858 28.777703 18.121497 14.547406 34.706994 30.858735 52.273549 50.793703l2.774709 3.194219 4.119123 4.839226c14.699355 17.391484 40.13089 48.530994 44.121187 53.264516l0.184981 0.218013c22.511484 26.472052 40.761806 43.893265 61.796748 57.125987 25.765161 16.202323 54.116748 24.470297 87.231587 24.470297 75.544774 0 165.204232-19.208258 267.178116-55.675871a19.819355 19.819355 0 1 0-13.345032-37.326452c-98.046348 35.063742-183.461161 53.363613-253.833084 53.363613-46.235252 0-76.040258-18.088465-116.025806-64.363354l-3.659975-4.294194-28.183122-34.175174c-8.961652-10.814761-17.731716-21.302503-22.620491-26.84862-18.967123-21.523819-37.128258-39.387665-57.198658-55.497496C349.273187 175.203097 219.036903 163.536103 42.509213 196.1984a19.819355 19.819355 0 0 0 7.214245 38.978065z" fill="#009042" p-id="3272"></path><path d="M307.29249 497.842374l-0.142038-0.003303 1.443509 0.013213z m-2.880413-0.099097a79.878606 79.878606 0 0 0 0.290684 0.013213z m-1.479845-0.09249l1.090065 0.069368a79.475613 79.475613 0 0 1-1.093368-0.066065z m-1.301471-0.1024l1.04382 0.085884-1.04382-0.085884z m-1.199071-0.115613l0.8192 0.082581a79.082529 79.082529 0 0 1-0.8192-0.082581z m-2.989419-0.363355a78.798452 78.798452 0 0 0 0.888568 0.118916z m-0.535123-0.079277l0.165162 0.023123a78.554013 78.554013 0 0 1-0.165162-0.023123z m-2.4576-0.406297l0.693678 0.12222-0.696981-0.12222z m-1.31138-0.247742l1.01409 0.194891a78.372335 78.372335 0 0 1-1.01409-0.198194z m-1.334503-0.277471l0.967845 0.201497-0.971149-0.201497z m-1.327897-0.300593l0.964542 0.221316a78.230297 78.230297 0 0 1-0.964542-0.221316z m-1.2288-0.300594l0.812593 0.198194-0.812593-0.198194z m-1.327897-0.346839l0.852232 0.22462a78.147716 78.147716 0 0 1-0.852232-0.22462z m-5.476748-1.707767a78.12129 78.12129 0 0 0 0.095793 0.033032z m-1.212284-0.436026l0.683767 0.251045-0.687071-0.251045z m-1.268439-0.482271l0.683768 0.264258-0.683768-0.264258z m-1.123097-0.449239l0.607794 0.244439a78.220387 78.220387 0 0 1-0.607794-0.244439z m-1.460026-0.6144l0.832413 0.353445a78.253419 78.253419 0 0 1-0.832413-0.353445z m-1.139612-0.50209l0.934812 0.412903c-0.313806-0.135432-0.627613-0.274168-0.938116-0.416206z m-0.997575-0.459148l0.584671 0.270864-0.584671-0.270864z m-6.33889-3.329652a78.53089 78.53089 0 0 0 0.29729 0.175071z m-0.914994-0.541729l0.452542 0.270864a78.715871 78.715871 0 0 1-0.452542-0.270864z m-1.136309-0.700284l0.436026 0.270865a78.75551 78.75551 0 0 1-0.436026-0.270865z m-1.040516-0.660645l0.363354 0.231226a78.834787 78.834787 0 0 1-0.363354-0.231226z m-5.803768-4.148852a78.990039 78.990039 0 0 0 0.151948 0.118916z m-1.01409-0.80929l0.512 0.412903a79.128774 79.128774 0 0 1-0.512-0.412903z m-0.957936-0.792774l0.478968 0.39969a79.14529 79.14529 0 0 1-0.478968-0.396387z m-0.997574-0.848929l0.528516 0.452542-0.528516-0.452542z m-0.901781-0.792775l0.386478 0.343536a79.211355 79.211355 0 0 1-0.386478-0.343536z m-0.948026-0.862141l0.436026 0.396387-0.436026-0.396387z m-2.341987-2.2528c0.300594 0.300594 0.60449 0.601187 0.911691 0.898477l-0.842323-0.82911z m55.748542-134.355407a78.382245 78.382245 0 0 1 43.004697 12.766968l0.327019 0.505393a78.375639 78.375639 0 0 1 12.446555 42.50591c0 43.486968-35.255329 78.742297-78.7456 78.742297a78.382245 78.382245 0 0 1-43.004697-12.770271 78.382245 78.382245 0 0 1-12.77027-43.008c0-43.486968 35.255329-78.742297 78.742296-78.742297z m-56.683355 133.404078l0.548336 0.561548-0.545032-0.561548z m-0.835716-0.881962l0.254349 0.270865a79.194839 79.194839 0 0 1-0.254349-0.270865z m-0.852232-0.924903l0.379871 0.416206a79.211355 79.211355 0 0 1-0.379871-0.416206z m-2.705342-3.147974a79.175019 79.175019 0 0 0 0.508697 0.6144z m-3.385806-4.472568a79.046194 79.046194 0 0 0 0.2048 0.290684z m143.095742-49.416258c0.075974 1.384052 0.11231 2.778013 0.112309 4.181884v-0.442632a80.119742 80.119742 0 0 0-0.052851-2.450994z m-0.3072-3.980387a79.277419 79.277419 0 0 1 0.095793 0.977755z m-0.356749-2.923355a78.801755 78.801755 0 0 1 0.145342 1.073548z m-0.733316-4.320619a78.398761 78.398761 0 0 1 0.231226 1.215587z m-0.284077-1.380749l0.181677 0.868749z m-0.287381-1.268438l0.201497 0.885264z m-0.3072-1.261833l0.175071 0.703587z m-0.356748-1.354322c0.079277 0.280774 0.151948 0.561548 0.227922 0.848929v-0.003303z m-1.701162-5.473445a78.12129 78.12129 0 0 1 0.4096 1.189161z m-0.442632-1.222194l0.251045 0.687071z m-0.445935-1.175948l0.201496 0.528516z m-0.465755-1.172645l0.175071 0.439329z m-1.13631-2.642581a78.289755 78.289755 0 0 1 0.442632 1.000877z m-1.44351-3.029058a78.402065 78.402065 0 0 1 0.158555 0.323716z m-1.691251-3.171097a78.567226 78.567226 0 0 1 0.59458 1.080155z m-0.571458-0.994271l0.320413 0.551639z m-1.400568-2.312258l0.402994 0.640826z m-4.756645-6.755097a79.046194 79.046194 0 0 1 0.7168 0.924903z m-0.8192-1.024l0.495484 0.621007v-0.003304z m-0.792774-0.957935l0.475664 0.571458z m-0.845626-0.990968l0.505393 0.584671z m-0.825807-0.934813l0.426117 0.475665z m-0.839019-0.924903l0.442632 0.482271z m-2.190039-2.275923a79.244387 79.244387 0 0 1 0.872052 0.888568z m-0.908387-0.891871l0.482271 0.472362z m-0.918297-0.872051l0.502091 0.472361z m-0.924903-0.848929c0.125523 0.109006 0.244439 0.221316 0.363355 0.330322z m-1.129703-1.010787l0.693677 0.6144z m-1.948903-1.645007a79.171716 79.171716 0 0 1 0.786168 0.650736z m-4.439536-3.375897a79.029677 79.029677 0 0 1 0.977755 0.703587z" fill="#009042" p-id="3273"></path><path d="M351.595355 353.131355c21.520516 14.055226 35.740903 38.357058 35.740903 65.975329 0 43.490271-35.252026 78.7456-78.742297 78.7456-27.614968 0-51.9168-14.220387-65.972026-35.7376a78.382245 78.382245 0 0 0 43.008 12.770271c43.486968 0 78.742297-35.255329 78.742297-78.742297 0-15.65729-4.568361-30.247639-12.446555-42.50591z" fill="#056639" p-id="3274"></path><path d="M292.190142 215.687432h36.091045v134.520568H292.190142z" fill="#009042" p-id="3275"></path><path d="M292.190142 223.463226l36.091045 8.971561v32.592929c-11.230968-5.255432-23.258013-9.876645-36.087742-13.863639l-0.003303-27.700851z" fill="#056639" p-id="3276"></path><path d="M224.896826 419.106684c0 46.225342 37.471794 83.700439 83.697135 83.700439 46.225342 0 83.700439-37.475097 83.700439-83.700439 0-37.098529-24.344774-69.344619-59.061677-80.010736V230.129135h-9.909678v116.557626l3.722736 0.957936c32.331974 8.320826 55.338942 37.600619 55.338942 71.461987 0 40.7552-33.038865 73.790761-73.790762 73.790761-40.751897 0-73.787458-33.035561-73.787458-73.790761 0-35.017497 24.589213-65.017394 58.410942-72.18209l3.927536-0.832413V222.693574h-9.909678v115.467561c-36.338787 9.549626-62.338477 42.58849-62.338477 80.945549z" fill="#4C3030" p-id="3277"></path><path d="M246.866581 172.487845l0.495484 0.006607c76.750452 3.775587 136.61151 22.263742 178.010838 55.5008 19.842477 15.924852 38.234839 33.831639 58.017858 56.280361l1.625187 1.859716c2.368413 2.731768 5.410684 6.309161 9.083871 10.685936l9.876646 11.84867 30.016412 36.38173 2.493936 2.953083c40.699045 47.490477 69.047329 63.745652 112.524387 63.745652 67.144671 0 149.021729-16.929032 244.052232-50.291613l7.59742-2.692129a26.293677 26.293677 0 1 1 17.708593 49.512052c-103.94591 37.174503-193.912568 56.055742-269.358245 56.055742-33.907613 0-63.530942-8.390194-90.676852-25.467871-20.972181-13.189781-39.509884-30.455742-63.299716-58.434065l-0.412903-0.485574-31.301368-37.927639a1931.075716 1931.075716 0 0 0-14.712567-17.566555l-3.646762-4.244645-3.402322-3.851561c-16.862968-18.914271-32.483923-34.016619-49.102452-47.355045-59.365574-47.652335-178.066994-57.710658-341.553548-27.459716a26.293677 26.293677 0 0 1-9.569445-51.708697c46.106426-8.528929 89.088-14.055226 128.743225-16.542555a6.606452 6.606452 0 1 1 0.825807 13.189781c-39.103587 2.450994-81.559948 7.907923-127.164284 16.344361a13.080774 13.080774 0 1 0 4.756645 25.725523c166.92191-30.885161 289.095019-20.536155 352.232877 30.145238 17.223019 13.827303 33.362581 29.431742 50.714426 48.894349l3.471691 3.930838 2.358503 2.731768a1907.738426 1907.738426 0 0 1 18.405574 21.966452l28.143484 34.122322 2.890322 3.425445c22.197677 25.9072 39.443819 41.832052 58.655381 53.915252 25.021935 15.739871 52.204181 23.43969 83.644284 23.43969 73.744516 0 162.280877-18.580645 264.9088-55.282787a13.080774 13.080774 0 1 0-8.826219-24.625548l-7.633755 2.705342c-96.345187 33.825032-179.629419 51.044748-248.448826 51.044748-47.837316 0-79.561497-18.187561-122.58271-68.396593l-2.576516-3.045575-30.052748-36.427974a2336.269213 2336.269213 0 0 0-12.915613-15.445884l-5.31489-6.23649-2.104155-2.414658c-19.290839-21.893781-37.148077-39.275355-56.362942-54.701419-38.961548-31.274942-96.196542-48.953806-170.390297-52.603871a6.606452 6.606452 0 0 1 0.650736-13.196387zM221.316129 171.767742a6.606452 6.606452 0 1 1 0 13.212903 6.606452 6.606452 0 0 1 0-13.212903z" fill="#4C3030" p-id="3278"></path><path d="M930.353548 646.203458l-0.013213 0.93151c0 72.482684-58.757781 131.240465-131.237161 131.240464H92.193032c-19.026581 0-34.449342 15.426065-34.449342 34.452645s15.426065 34.449342 34.452645 34.449342h706.903536c110.532542 0 200.139148-89.606606 200.139148-200.142451 0-19.026581-15.426065-34.449342-34.452645-34.449342-18.712774 0-33.940645 14.923974-34.436129 33.517832z" fill="#FACB62" p-id="3279"></path><path d="M989.392103 623.021419a34.340335 34.340335 0 0 1 9.85022 24.113549c0 110.535845-89.606606 200.142452-200.142452 200.142451H92.199639c-19.026581 0-34.449342-15.426065-34.449342-34.452645 0-4.026632 0.693677-7.891406 1.962116-11.482013 4.726916 13.378065 17.487277 22.967329 32.487226 22.967329h706.906838c110.532542 0 190.295535-89.606606 190.295536-200.142451l-0.003303-0.944723z" fill="#E8A44E" p-id="3280"></path><path d="M937.997213 616.025187a6.606452 6.606452 0 0 1 8.628026 10.008774 27.714065 27.714065 0 0 0-9.665239 20.258684l-0.013213 0.842323c0 76.132748-61.714168 137.846916-137.843613 137.846916H92.193032a27.846194 27.846194 0 1 0 0 55.689084h706.906839c106.882477 0 193.532697-86.650219 193.532697-193.536a27.757006 27.757006 0 0 0-9.539716-20.978787 6.606452 6.606452 0 1 1 8.69409-9.95262 40.966606 40.966606 0 0 1 14.058529 30.931407c0 114.18591-92.562994 206.748903-206.748903 206.748903H92.199639c-22.673342 0-41.055794-18.382452-41.055794-41.059097 0-22.673342 18.382452-41.055794 41.059097-41.055793h706.903535c68.832619 0 124.63071-55.79809 124.63071-124.719897l0.016516-1.020697a40.96991 40.96991 0 0 1 14.246813-30.0032zM964.541935 607.793548a6.606452 6.606452 0 1 1 0 13.212904 6.606452 6.606452 0 0 1 0-13.212904z" fill="#4C3030" p-id="3281"></path></svg>